<svg width="46" height="30" viewBox="0 0 46 30" fill="none" xmlns="http://www.w3.org/2000/svg">
<path d="M14.4 17.0839C14.352 17.0599 14.316 17.0479 14.292 17.0479C13.476 16.7119 12.468 16.5439 11.268 16.5439C10.092 16.5439 9.15597 16.6639 8.45997 16.9039C7.35597 17.2879 6.80397 17.7919 6.80397 18.4159C6.80397 18.7279 7.10397 18.8839 7.70397 18.8839C7.79997 18.8839 8.01597 18.8599 8.35197 18.8119H8.38797C8.48397 18.8119 8.53197 19.0639 8.53197 19.5679L8.49597 20.3959C8.37597 22.0519 8.31597 23.2519 8.31597 23.9959C8.31597 24.7159 8.42397 25.4359 8.63997 26.1559L8.96397 27.2359C8.96397 27.3079 8.92797 27.3679 8.85597 27.4159C8.66397 27.4879 8.26797 27.7159 7.66797 28.0999C6.20397 29.0359 5.14797 29.5039 4.49997 29.5039C3.87597 29.5039 3.28797 29.4199 2.73597 29.2519C2.20797 29.1079 1.78797 28.9519 1.47597 28.7839C1.16397 28.6159 1.00797 28.4959 1.00797 28.4239C1.00797 28.3039 1.12797 27.9079 1.36797 27.2359C1.63197 26.5399 1.76397 25.9039 1.76397 25.3279C1.76397 25.2079 1.64397 25.0759 1.40397 24.9319C1.16397 24.7639 1.04397 24.5719 1.04397 24.3559C1.04397 24.1399 1.11597 23.8399 1.25997 23.4559C1.42797 23.0719 1.51197 22.8679 1.51197 22.8439V22.6999L1.47597 20.8999C1.47597 20.5879 1.49997 19.9519 1.54797 18.9919V18.8479L1.58397 18.1999C1.58397 17.6959 1.53597 17.1919 1.43997 16.6879C1.36797 16.1839 1.33197 15.9199 1.33197 15.8959C1.33197 15.8719 1.52397 15.6919 1.90797 15.3559C2.29197 15.0199 2.48397 14.7559 2.48397 14.5639C2.48397 14.3719 2.44797 14.2279 2.37597 14.1319C2.30397 14.0119 2.20797 13.9279 2.08797 13.8799C1.99197 13.8079 1.89597 13.7479 1.79997 13.6999C1.53597 13.5799 1.40397 13.5079 1.40397 13.4839C1.52397 12.2839 1.58397 11.4559 1.58397 10.9999L1.47597 7.03988C1.76397 6.65588 1.90797 6.41588 1.90797 6.31988C1.90797 6.22388 1.79997 6.06788 1.58397 5.85188C1.36797 5.73188 1.16397 5.25188 0.971971 4.41188C0.803971 3.57188 0.719971 2.94788 0.719971 2.53988C0.719971 2.37188 1.45197 2.20388 2.91597 2.03588C4.37997 1.84388 5.11197 1.67588 5.11197 1.53188C5.23197 1.45988 5.38797 1.42388 5.57997 1.42388C5.77197 1.42388 6.31197 1.47188 7.19997 1.56788C8.08797 1.66388 8.57997 1.75988 8.67597 1.85588L8.81997 2.21588C8.91597 2.43188 9.08397 2.53988 9.32397 2.53988C9.56397 2.53988 10.224 2.39588 11.304 2.10788C12.384 1.81988 13.344 1.67588 14.184 1.67588L15.588 1.38788C16.812 1.62788 17.46 1.77188 17.532 1.81988C17.58 1.91588 17.604 2.15588 17.604 2.53988C17.604 2.89988 17.556 3.34388 17.46 3.87188V3.94388C16.908 6.15188 16.5 7.38788 16.236 7.65188C15.972 7.91588 15.444 8.04788 14.652 8.04788C13.884 8.02388 13.5 7.87988 13.5 7.61588V7.50788C13.5 6.90788 13.32 6.43988 12.96 6.10388C12.6 5.74388 12.108 5.56388 11.484 5.56388C10.884 5.56388 10.152 5.75588 9.28797 6.13988C8.42397 6.52388 7.99197 6.82388 7.99197 7.03988C7.99197 7.08788 8.11197 7.21988 8.35197 7.43588C8.61597 7.62788 8.74797 7.80788 8.74797 7.97588C8.74797 8.14388 8.69997 8.28788 8.60397 8.40788C8.45997 8.62388 8.38797 9.21188 8.38797 10.1719C8.38797 11.1319 8.44797 11.6719 8.56797 11.7919C8.68797 11.9119 9.11997 11.9719 9.86397 11.9719L15.192 11.8279C15.648 11.8279 15.9 11.8639 15.948 11.9359C16.02 11.9839 16.056 12.3319 16.056 12.9799C16.056 13.6279 15.852 14.4799 15.444 15.5359C15.036 16.5679 14.7 17.0839 14.436 17.0839H14.4Z" fill="black"/>
<path d="M19.2015 5.41988L19.0575 2.71988C19.0575 2.57588 19.6455 2.27588 20.8215 1.81988C22.0215 1.33988 22.7055 1.09988 22.8735 1.09988L23.7735 1.49588C23.9175 1.49588 24.1095 1.49588 24.3495 1.49588C24.6135 1.47188 25.0095 1.44788 25.5375 1.42388C26.7375 1.39988 27.3255 1.37588 27.3015 1.35188C29.0055 1.68788 29.8575 2.01188 29.8575 2.32388C29.8575 2.97188 29.9295 3.88388 30.0735 5.05988C30.2175 6.21188 30.4335 6.94388 30.7215 7.25588C30.7215 7.30388 30.5655 7.53188 30.2535 7.93988C29.9415 8.34788 29.7855 8.73188 29.7855 9.09188C29.7855 9.21188 29.9535 9.34388 30.2895 9.48788C30.6255 9.63188 30.7935 9.73988 30.7935 9.81188C31.0335 12.2359 31.2135 13.5559 31.3335 13.7719C31.4775 13.9879 31.7295 14.0959 32.0895 14.0959C32.1855 14.0959 32.2695 13.9519 32.3415 13.6639C32.6055 12.5599 32.8095 11.9359 32.9535 11.7919C33.2175 9.15188 33.4335 7.73588 33.6015 7.54388C34.3215 7.15988 34.6815 6.77588 34.6815 6.39188C34.6815 6.17588 34.5615 5.94788 34.3215 5.70788C34.0815 5.44388 33.9615 5.28788 33.9615 5.23988C33.9615 5.16788 34.1055 4.68788 34.3935 3.79988C34.6815 2.88788 34.8855 2.37188 35.0055 2.25188C35.1495 2.10788 36.0735 1.83188 37.7775 1.42388C39.4815 0.991879 40.5495 0.775879 40.9815 0.775879C43.9335 0.895879 45.4095 1.15988 45.4095 1.56788C44.9535 3.31988 44.7255 4.32788 44.7255 4.59188C44.7255 4.85588 44.7375 4.98788 44.7615 4.98788C44.9775 4.98788 45.0855 6.24788 45.0855 8.76788V9.41588C45.0855 9.46388 44.9895 9.53588 44.7975 9.63188C44.1975 9.99188 43.8975 10.4359 43.8975 10.9639C43.8975 10.9879 44.0775 11.1439 44.4375 11.4319C44.7975 11.6959 44.9775 11.8999 44.9775 12.0439V12.0799C44.7375 13.1839 44.6175 15.3799 44.6175 18.6679L44.6535 20.9719C44.7735 21.2359 44.8335 21.6799 44.8335 22.3039V22.6999C44.8335 22.7719 44.6655 22.9759 44.3295 23.3119C44.0175 23.6479 43.8615 23.8879 43.8615 24.0319C43.8615 24.3439 44.2095 24.5479 44.9055 24.6439C44.9055 25.1959 45.1575 26.0839 45.6615 27.3079L45.9135 27.9199C45.9135 28.1359 45.2175 28.4959 43.8255 28.9999C42.4575 29.5039 41.3655 29.7559 40.5495 29.7559C40.2615 29.7559 39.6375 29.5519 38.6775 29.1439C37.7175 28.7599 37.2375 28.4719 37.2375 28.2799L37.8135 25.1839L37.6695 20.6479C37.6695 20.6239 37.8135 20.4559 38.1015 20.1439C38.4135 19.8079 38.5695 19.5319 38.5695 19.3159C38.5695 19.0759 38.4975 18.8839 38.3535 18.7399C38.2335 18.5719 38.1015 18.4639 37.9575 18.4159C37.8135 18.3439 37.7415 18.2959 37.7415 18.2719C37.7415 17.9839 37.8855 17.5039 38.1735 16.8319C38.1735 16.2079 38.1255 15.1279 38.0295 13.5919C37.9575 12.0319 37.8735 11.2519 37.7775 11.2519L37.1655 11.5399C37.0935 11.6119 36.7695 12.8599 36.1935 15.2839C35.6175 17.6839 35.3295 18.9439 35.3295 19.0639C35.3295 19.1839 35.3895 19.3879 35.5095 19.6759C35.6295 19.9639 35.6895 20.1679 35.6895 20.2879C35.6895 20.3839 35.6175 20.5039 35.4735 20.6479C35.3535 20.7679 35.1975 20.8999 35.0055 21.0439C34.8135 21.1879 34.6935 21.2839 34.6455 21.3319L34.4655 21.9079C34.4655 22.0759 34.5735 22.2799 34.7895 22.5199C35.0055 22.7359 35.1135 22.8799 35.1135 22.9519C35.1135 22.9999 34.9335 23.2759 34.5735 23.7799C34.2375 24.2599 33.7575 24.7639 33.1335 25.2919C32.5335 25.8199 31.9935 26.0839 31.5135 26.0839C31.0575 26.0839 30.2535 25.9159 29.1015 25.5799C27.9495 25.2199 27.3735 24.9439 27.3735 24.7519L27.0495 23.0599C27.0495 23.0359 27.1335 22.9879 27.3015 22.9159C27.8295 22.6999 28.0935 22.3999 28.0935 22.0159C28.0935 21.7519 27.8415 21.5719 27.3375 21.4759C26.8575 21.3799 26.6175 21.2599 26.6175 21.1159C26.6175 19.5319 26.1975 17.0239 25.3575 13.5919L24.9615 11.8999C24.9375 11.8999 24.9255 11.8999 24.9255 11.8999C24.9255 11.8759 24.9135 11.8639 24.8895 11.8639L24.4575 12.0799C24.2895 12.2479 24.2055 13.4359 24.2055 15.6439L24.3135 20.9359C24.5775 21.7519 24.7095 22.2919 24.7095 22.5559C24.7095 22.7959 24.6975 22.9279 24.6735 22.9519C24.0975 23.3599 23.8095 23.7919 23.8095 24.2479V24.3919C23.8095 24.5119 23.9055 24.6319 24.0975 24.7519C24.3135 24.8479 24.4455 24.9199 24.4935 24.9679C24.5415 25.0639 24.5655 25.1839 24.5655 25.3279L24.5295 26.2279L24.7095 27.6679C24.7095 27.9799 24.6375 28.1479 24.4935 28.1719L23.1255 28.7839C22.1895 29.1919 21.6015 29.3959 21.3615 29.3959C21.1215 29.3959 20.5215 29.2279 19.5615 28.8919C18.6255 28.5559 18.1575 28.2919 18.1575 28.0999C18.1575 28.0519 18.2415 27.7159 18.4095 27.0919C18.9375 25.1239 19.2015 23.3959 19.2015 21.9079C19.2015 21.8839 19.0695 21.7999 18.8055 21.6559C18.5415 21.5119 18.4095 21.4039 18.4095 21.3319L19.1655 17.5519C19.0935 17.1439 19.0575 15.1999 19.0575 11.7199V9.95588C19.0575 9.93188 19.1415 9.87188 19.3095 9.77588C19.7655 9.43988 19.9935 9.15188 19.9935 8.91188C19.9935 8.64788 19.9575 8.44388 19.8855 8.29988C19.8135 8.15588 19.7175 8.03588 19.5975 7.93988C19.5015 7.84388 19.3935 7.75988 19.2735 7.68788C19.1775 7.61588 19.0935 7.56788 19.0215 7.54388C18.9735 7.49588 18.9855 7.36388 19.0575 7.14788C19.1535 6.93188 19.2015 6.35588 19.2015 5.41988Z" fill="black"/>
</svg>
