<?xml version="1.0" encoding="UTF-8" standalone="no"?>
<svg
   xmlns:dc="http://purl.org/dc/elements/1.1/"
   xmlns:cc="http://creativecommons.org/ns#"
   xmlns:rdf="http://www.w3.org/1999/02/22-rdf-syntax-ns#"
   xmlns:svg="http://www.w3.org/2000/svg"
   xmlns="http://www.w3.org/2000/svg"
   xmlns:sodipodi="http://sodipodi.sourceforge.net/DTD/sodipodi-0.dtd"
   xmlns:inkscape="http://www.inkscape.org/namespaces/inkscape"
   sodipodi:docname="all_bg.svg"
   inkscape:version="1.0 (4035a4fb49, 2020-05-01)"
   id="svg1747"
   version="1.1"
   viewBox="0 0 1024 768"
   height="768mm"
   width="1024mm">
  <defs
     id="defs1741" />
  <sodipodi:namedview
     inkscape:window-maximized="1"
     inkscape:window-y="-8"
     inkscape:window-x="-8"
     inkscape:window-height="705"
     inkscape:window-width="1366"
     width="1920mm"
     units="mm"
     showgrid="false"
     inkscape:document-rotation="0"
     inkscape:current-layer="layer1"
     inkscape:document-units="px"
     inkscape:cy="1458.7936"
     inkscape:cx="2027.3009"
     inkscape:zoom="0.18"
     inkscape:pageshadow="2"
     inkscape:pageopacity="0.0"
     borderopacity="1.0"
     bordercolor="#666666"
     pagecolor="#ffffff"
     id="base" />
  <metadata
     id="metadata1744">
    <rdf:RDF>
      <cc:Work
         rdf:about="">
        <dc:format>image/svg+xml</dc:format>
        <dc:type
           rdf:resource="http://purl.org/dc/dcmitype/StillImage" />
        <dc:title></dc:title>
      </cc:Work>
    </rdf:RDF>
  </metadata>
  <g
     id="layer1"
     inkscape:groupmode="layer"
     inkscape:label="Layer 1">
    <g
       id="g2699">
      <ellipse
         ry="231.51041"
         rx="240.60547"
         cy="385.29947"
         cx="518.41791"
         id="path1749-7"
         style="opacity:0.06129032;fill:#007c41;stroke-width:0.446898" />
      <rect
         y="1.653628"
         x="1.6536458"
         height="767.29169"
         width="873.95178"
         id="rect2327-8"
         style="opacity:0.032258;fill:#dbe2e3;stroke-width:0.244084" />
      <rect
         style="opacity:0.03225806;fill:#007c41;stroke-width:0.264583"
         id="rect2327"
         width="1026.9141"
         height="767.29169"
         x="1.6536458"
         y="1.6536458" />
      <ellipse
         style="opacity:0.04516129;fill:#007c41;stroke-width:0.264583"
         id="path1749"
         cx="482.86456"
         cy="274.50519"
         rx="138.90625"
         ry="140.55989" />
      <ellipse
         ry="28.938805"
         rx="31.419277"
         cy="458.88672"
         cx="611.849"
         id="path1749-9"
         style="opacity:0.10322581;fill:#007c41;stroke-width:0.0570964" />
      <ellipse
         style="opacity:0.04516129;fill:#007c41;stroke-width:0.0344077"
         id="path1749-9-6"
         cx="379.51169"
         cy="148.82811"
         rx="19.016933"
         ry="17.363287" />
      <ellipse
         ry="17.363287"
         rx="19.016935"
         cy="206.70573"
         cx="128.98438"
         id="path1749-9-6-1"
         style="opacity:0.2516129;fill:#007c41;stroke-width:0.0344077" />
      <path
         id="rect2393"
         style="opacity:0.0451613;fill:#00aa44;stroke-width:0.264583"
         d="M -1.6536458,496.09375 C 89.264082,686.77051 192.45068,501.34049 319.15366,699.49219 510.48383,501.45141 631.02249,-43.467813 1028.5677,768.94531 l -1026.9140542,0 z"
         sodipodi:nodetypes="ccccc" />
      <path
         id="path4"
         fill="#6c63ff"
         d="m 159.56704,343.46392 h -12.6321 a 1.6747656,1.7743502 0 0 0 -1.67477,1.77435 v 5.8743 a 1.6747656,1.7743502 0 0 0 1.67477,1.77435 h 2.09332 v 8.80171 h 8.44546 v -8.80171 h 2.09332 a 1.6747656,1.7743502 0 0 0 1.67477,-1.77435 v -5.8743 a 1.6747656,1.7743502 0 0 0 -1.67477,-1.77435 z"
         style="opacity:0.154839;fill:#00d455;stroke-width:0.457523" />
      <path
         id="path6"
         fill="#3f3d56"
         d="m 172.21945,397.2255 a 64.943577,68.805235 0 0 1 -11.29824,-40.79389 1.3696846,1.4511284 0 0 0 -1.06912,-1.4481 v -2.53826 H 146.5109 v 2.50298 h -0.18382 a 1.3689245,1.4503232 0 0 0 -1.36339,1.55776 q 1.57656,23.28358 -10.64731,41.76053 a 3.7725866,3.9969113 0 0 0 -0.68277,2.42223 l 1.45879,47.8078 a 3.9063137,4.1385901 0 0 0 3.87291,3.99437 h 30.17577 a 3.9076827,4.1400406 0 0 0 3.87523,-4.06482 l 0.56216,-46.41749 a 7.9070613,8.377229 0 0 0 -1.35902,-4.78311 z"
         style="opacity:0.154839;fill:#5fd35f;stroke-width:0.457523" />
      <path
         id="path8"
         opacity="0.2"
         d="m 156.93371,345.37799 a 3.6132408,3.8280905 0 0 1 -7.22647,0"
         style="opacity:0.154839;fill:#008033;stroke-width:0.457523" />
      <path
         id="path10"
         fill="#6c63ff"
         d="m 167.44257,413.10575 h -3.65406 a 9.5905477,10.160818 0 0 0 -18.9573,0 h -3.6543 a 2.6966395,2.8569865 0 0 0 -2.66527,3.29141 l 3.96911,27.33332 h 22.79121 l 4.82106,-27.24124 a 2.6966351,2.8569818 0 0 0 -2.65045,-3.38349 z"
         style="opacity:0.154839;fill:#00aa44;stroke-width:0.457523" />
      <polygon
         id="polygon12"
         fill="#e6e6e6"
         points="736,307.634 827.952,307.634 825.98,386.448 823.538,484.181 740.414,484.181 737.552,369.675 "
         transform="matrix(0.50436724,0,0,0.43239846,311.88741,498.70693)"
         style="opacity:0.332258" />
      <rect
         style="opacity:0.332258;fill:#ffffff;stroke:#008000;stroke-width:0.466998;stroke-opacity:1"
         id="rect14"
         fill="#6c63ff"
         height="67.432549"
         width="5.9363065"
         y="613.59686"
         x="703.13672" />
      <path
         style="opacity:0.332258;fill:#008000;fill-opacity:0.751004;stroke-width:0.466998"
         id="path16"
         fill="#3f3d56"
         d="m 726.51095,657.40571 -1.12277,48.43728 h -38.21427 l -1.31552,-56.74955 a 26.042463,22.326431 0 0 1 20.59174,2.42807 c 6.38482,3.23739 13.55764,4.98004 20.06082,5.8842 z" />
      <rect
         style="opacity:0.332258;fill:#ffffff;stroke-width:0.466998"
         id="rect18"
         fill="#e6e6e6"
         height="4.6698689"
         width="5.4471259"
         y="662.85852"
         x="691.18713" />
      <rect
         style="opacity:0.332258;fill:#ffffff;stroke-width:0.466998"
         id="rect20"
         fill="#e6e6e6"
         height="4.6698689"
         width="5.4471259"
         y="653.31616"
         x="694.89728" />
      <rect
         style="opacity:0.332258;fill:#ffffff;stroke-width:0.469531"
         id="rect22"
         fill="#e6e6e6"
         transform="matrix(0.84386708,0.53655229,-0.65425122,0.75627729,0,0)"
         height="4.9596486"
         width="5.1846642"
         y="176.74142"
         x="975.62677" />
      <rect
         style="opacity:0.332258;fill:#ffffff;stroke-width:0.469531"
         id="rect24"
         fill="#e6e6e6"
         transform="matrix(0.84386708,0.53655229,-0.65425122,0.75627729,0,0)"
         height="4.9596486"
         width="5.1846642"
         y="178.46173"
         x="988.62317" />
      <rect
         style="opacity:0.332258;fill:#ffffff;stroke-width:0.469531"
         id="rect26"
         fill="#e6e6e6"
         transform="matrix(0.84386708,0.53655229,-0.65425122,0.75627729,0,0)"
         height="4.9596486"
         width="5.1846642"
         y="191.58745"
         x="979.01453" />
      <ellipse
         id="circle28"
         fill="#3f3d56"
         cy="650.4939"
         cx="717.97754"
         style="opacity:0.332258;stroke-width:0.466998"
         rx="1.1130577"
         ry="0.95423418" />
      <ellipse
         id="circle30"
         fill="#3f3d56"
         cy="644.13245"
         cx="695.34534"
         style="opacity:0.332258;stroke-width:0.466998"
         rx="1.1130577"
         ry="0.95423418" />
      <ellipse
         id="circle32"
         fill="#3f3d56"
         cy="637.45276"
         cx="714.26727"
         style="opacity:0.332258;stroke-width:0.466998"
         rx="1.1130577"
         ry="0.95423418" />
      <circle
         style="fill:#008000;fill-opacity:0.752941;stroke-width:0.264583;opacity:0.19354839"
         r="63.964081"
         id="circle34"
         fill="#6c63ff"
         cy="567.38422"
         cx="304.27081" />
      <circle
         style="fill:#001800;fill-opacity:0.361446;stroke-width:0.264583;opacity:0.19354839"
         id="circle38"
         fill="#3f3d56"
         r="45.247902"
         cy="567.38422"
         cx="304.27081" />
      <path
         style="fill:#ffffff;stroke-width:0.264583;opacity:0.19354839"
         id="path40"
         fill="#ff6584"
         d="m 270.62094,549.29148 a 5.7425165,5.7425165 0 1 1 10.2344,-5.21181 l 12.78369,25.10323 a 5.7425165,5.7425165 0 1 1 -10.23439,5.21181 z" />
      <path
         style="fill:#ffffff;stroke-width:0.264583;opacity:0.19354839"
         id="path42"
         opacity="0.2"
         d="m 272.04682,552.09146 -0.59002,-1.15861 c 2.94459,-2.28795 6.40235,-3.97061 10.23439,-5.21182 l 0.59002,1.15861 c -4.14745,0.86367 -7.67598,2.462 -10.23439,5.21182 z" />
      <path
         style="fill:#ffffff;stroke-width:0.264583;opacity:0.19354839"
         id="path44"
         opacity="0.2"
         d="m 274.80023,557.49831 -0.59002,-1.15861 c 2.94458,-2.28795 6.40235,-3.97061 10.23439,-5.21182 l 0.59002,1.15861 c -4.14745,0.86367 -7.67598,2.46201 -10.23439,5.21182 z" />
      <path
         style="fill:#ffffff;stroke-width:0.264583;opacity:0.19354839"
         id="path46"
         opacity="0.2"
         d="m 277.55364,562.90516 -0.59002,-1.15861 c 2.94458,-2.28795 6.40235,-3.97061 10.23439,-5.21182 l 0.59002,1.15861 c -4.14745,0.86367 -7.67597,2.46201 -10.23439,5.21182 z" />
      <path
         style="fill:#ffffff;stroke-width:0.264583;opacity:0.19354839"
         id="path48"
         opacity="0.2"
         d="m 280.30705,568.312 -0.59002,-1.15861 c 2.94459,-2.28795 6.40235,-3.9706 10.23439,-5.21181 l 0.59002,1.15861 c -4.14745,0.86367 -7.67597,2.462 -10.23439,5.21181 z" />
      <path
         style="fill:#ffffff;stroke-width:0.264583;opacity:0.19354839"
         id="path50"
         opacity="0.2"
         d="m 283.06046,573.71886 -0.59002,-1.15861 c 2.94459,-2.28795 6.40235,-3.97061 10.23439,-5.21182 l 0.59003,1.15861 c -4.14746,0.86367 -7.67598,2.46201 -10.2344,5.21182 z" />
      <path
         style="fill:#ffffff;stroke-width:0.264583;opacity:0.19354839"
         id="path52"
         fill="#ff6584"
         d="m 261.03023,558.68922 a 5.7425165,5.7425165 0 1 1 10.2344,-5.21182 l 12.78369,25.10324 a 5.7425165,5.7425165 0 0 1 -10.2344,5.21181 z" />
      <path
         style="fill:#ffffff;stroke-width:0.264583;opacity:0.19354839"
         id="path54"
         opacity="0.2"
         d="m 262.4561,561.48919 -0.59002,-1.15861 c 2.94459,-2.28795 6.40236,-3.9706 10.2344,-5.21181 l 0.59002,1.15861 c -4.14744,0.86367 -7.67598,2.462 -10.2344,5.21181 z" />
      <path
         style="fill:#ffffff;stroke-width:0.264583;opacity:0.19354839"
         id="path56"
         opacity="0.2"
         d="m 265.20951,566.89604 -0.59002,-1.15861 c 2.94459,-2.28794 6.40236,-3.9706 10.2344,-5.21181 l 0.59002,1.15861 c -4.14745,0.86367 -7.67597,2.462 -10.2344,5.21181 z" />
      <path
         style="fill:#ffffff;stroke-width:0.264583;opacity:0.19354839"
         id="path58"
         opacity="0.2"
         d="m 267.96293,572.30289 -0.59003,-1.15861 c 2.94459,-2.28794 6.40236,-3.9706 10.2344,-5.21181 l 0.59002,1.15861 c -4.14745,0.86367 -7.67597,2.462 -10.23439,5.21181 z" />
      <path
         style="fill:#ffffff;stroke-width:0.264583;opacity:0.19354839"
         id="path60"
         opacity="0.2"
         d="m 270.71635,577.70974 -0.59002,-1.15861 c 2.94459,-2.28795 6.40235,-3.97061 10.23439,-5.21182 l 0.59002,1.15861 c -4.14746,0.86368 -7.67598,2.46202 -10.23439,5.21182 z" />
      <path
         style="fill:#ffffff;stroke-width:0.264583;opacity:0.19354839"
         id="path62"
         opacity="0.2"
         d="m 273.46975,583.11659 -0.59002,-1.15861 c 2.94459,-2.28794 6.40235,-3.9706 10.23439,-5.21181 l 0.59002,1.15861 c -4.14745,0.86367 -7.67597,2.46201 -10.23439,5.21181 z" />
      <path
         id="path64"
         fill="#e6e6e6"
         d="m 334.50465,568.82395 0.0404,4e-5 a 6.8495596,6.8495596 0 0 0 6.41329,-4.29583 22.358042,22.358042 0 0 0 1.56716,-8.38568 c -0.0718,-12.14722 -9.95421,-22.1126 -22.10048,-22.28062 a 22.421834,22.421834 0 0 0 -9.33367,42.94721 6.7909756,6.7909756 0 0 0 7.54212,-1.39855 22.346218,22.346218 0 0 1 15.87121,-6.58657 z"
         style="stroke-width:0.264583;opacity:0.19354839" />
      <circle
         id="circle66"
         fill="#f9a825"
         r="7.4042029"
         cy="554.63257"
         cx="322.987"
         style="stroke-width:0.264583;opacity:0.19354839" />
      <circle
         id="circle68"
         fill="#3f3d56"
         r="0.87224919"
         cy="552.92773"
         cx="306.89499"
         style="stroke-width:0.264583;opacity:0.19354839" />
      <circle
         style="fill:#ffffff;stroke-width:0.264583;opacity:0.19354839"
         id="circle70"
         fill="#3f3d56"
         r="0.87224919"
         cy="553.75043"
         cx="278.10089" />
      <circle
         id="circle72"
         fill="#3f3d56"
         r="0.87224919"
         cy="543.88806"
         cx="311.5437"
         style="stroke-width:0.264583;opacity:0.19354839" />
      <circle
         id="circle76"
         fill="#3f3d56"
         r="0.87224919"
         cy="542.08655"
         cx="328.79538"
         style="stroke-width:0.264583;opacity:0.19354839" />
      <circle
         style="fill:#ffffff;stroke-width:0.264583;opacity:0.19354839"
         id="circle78"
         fill="#3f3d56"
         r="0.87224919"
         cy="565.94452"
         cx="272.44119" />
      <circle
         style="fill:#ffffff;stroke-width:0.264583;opacity:0.19354839"
         id="circle80"
         fill="#3f3d56"
         r="0.87224919"
         cy="578.49054"
         cx="278.81702" />
      <circle
         style="fill:#ffffff;stroke-width:0.264583;opacity:0.19354839"
         id="circle190"
         fill="#3f3d56"
         r="0.87224919"
         cy="568.61829"
         cx="285.80988" />
      <polygon
         style="fill:#b3b3b3;opacity:0.19354839"
         id="polygon192"
         fill="#f9a825"
         points="464.345,366.08 385.17,344.123 388.203,332.857 467.378,354.815 "
         transform="matrix(0.26458333,0,0,0.26458333,186.6614,503.42016)" />
      <path
         style="fill:#b3b3b3;stroke-width:0.264583;opacity:0.19354839"
         id="path194"
         fill="#f9a825"
         d="m 306.44834,599.28265 a 57.750147,57.750147 0 0 1 -21.71638,0 v -3.08988 a 66.40811,66.40811 0 0 0 21.71638,0 z" />
      <path
         style="fill:#b3b3b3;stroke-width:0.264583;opacity:0.19354839"
         id="path196"
         fill="#f9a825"
         d="m 308.68087,590.013 a 57.750147,57.750147 0 0 1 -21.71639,0 v -3.08989 a 66.408256,66.408256 0 0 0 21.71639,0 z" />
      <path
         style="fill:#b3b3b3;stroke-width:0.264583;opacity:0.19354839"
         id="path198"
         fill="#f9a825"
         d="m 316.19028,593.72086 a 57.750161,57.750161 0 0 1 -21.71638,0 v -3.08988 a 66.408272,66.408272 0 0 0 21.71638,0 z" />
      <path
         style="fill:#b3b3b3;stroke-width:0.264583;opacity:0.19354839"
         id="path200"
         fill="#f9a825"
         d="m 318.01688,597.22273 a 57.750039,57.750039 0 0 1 -21.71638,0 v -3.08989 a 66.408256,66.408256 0 0 0 21.71638,0 z" />
      <polygon
         style="fill:#b3b3b3;opacity:0.19354839"
         id="polygon202"
         fill="#f9a825"
         points="520.531,371.824 439.554,385.426 437.676,373.904 518.652,360.302 "
         transform="matrix(0.26458333,0,0,0.26458333,186.6614,503.42016)" />
      <path
         style="fill:#b3b3b3;stroke-width:0.264583;opacity:0.19354839"
         id="path204"
         fill="#f9a825"
         d="m 321.18481,602.19475 a 58.200394,58.200394 0 0 1 -19.73265,9.20336 l -1.27118,-2.80763 a 66.927509,66.927509 0 0 0 19.73264,-9.20337 z" />
      <path
         style="fill:#b3b3b3;stroke-width:0.264583;opacity:0.19354839"
         id="path206"
         fill="#f9a825"
         d="m 319.39985,592.82571 a 58.20037,58.20037 0 0 1 -19.73264,9.20337 l -1.27118,-2.80763 a 66.927509,66.927509 0 0 0 19.73264,-9.20337 z" />
      <path
         style="fill:#b3b3b3;stroke-width:0.264583;opacity:0.19354839"
         id="path208"
         fill="#f9a825"
         d="m 327.74871,593.01239 a 58.200333,58.200333 0 0 1 -19.73265,9.20337 l -1.27118,-2.80762 a 66.927598,66.927598 0 0 0 19.73265,-9.20338 z" />
      <path
         style="fill:#b3b3b3;stroke-width:0.264583;opacity:0.19354839"
         id="path210"
         fill="#f9a825"
         d="m 330.84913,595.42026 a 58.20037,58.20037 0 0 1 -19.73264,9.20337 l -1.27118,-2.80763 a 66.927509,66.927509 0 0 0 19.73264,-9.20337 z" />
      <rect
         style="fill:#b3b3b3;stroke-width:0.264583;opacity:0.19354839"
         id="rect212"
         fill="#00bf71"
         height="1.0283613"
         width="1.0283613"
         y="589.39117"
         x="303.8595" />
      <rect
         style="fill:#b3b3b3;stroke-width:0.264583;opacity:0.19354839"
         id="rect214"
         fill="#00bf71"
         height="1.0283613"
         width="1.0283613"
         y="607.28467"
         x="306.94455" />
      <rect
         style="fill:#b3b3b3;stroke-width:0.264583;opacity:0.19354839"
         id="rect216"
         fill="#00bf71"
         height="1.0283613"
         width="1.0283613"
         y="589.39117"
         x="290.49078" />
      <rect
         style="fill:#b3b3b3;stroke-width:0.264583;opacity:0.19354839"
         id="rect218"
         fill="#00bf71"
         height="1.0283613"
         width="1.0283613"
         y="602.14288"
         x="314.34875" />
      <rect
         style="fill:#b3b3b3;stroke-width:0.264583;opacity:0.19354839"
         id="rect220"
         fill="#00bf71"
         height="1.0283613"
         width="1.0283613"
         y="596.17834"
         x="314.96579" />
      <rect
         style="fill:#b3b3b3;stroke-width:0.264583;opacity:0.19354839"
         id="rect222"
         fill="#00bf71"
         transform="rotate(34.15572)"
         height="0.82269013"
         width="1.4397063"
         y="323.12772"
         x="579.15204" />
      <rect
         style="fill:#b3b3b3;stroke-width:0.264583;opacity:0.19354839"
         id="rect224"
         fill="#00bf71"
         transform="rotate(34.15572)"
         height="0.82269013"
         width="1.4397063"
         y="318.18695"
         x="590.46387" />
      <rect
         style="fill:#b3b3b3;stroke-width:0.264583;opacity:0.19354839"
         id="rect226"
         fill="#00bf71"
         transform="rotate(34.15572)"
         height="0.82269013"
         width="1.4397063"
         y="329.73477"
         x="580.40375" />
      <rect
         style="fill:#b3b3b3;stroke-width:0.264583;opacity:0.19354839"
         id="rect228"
         fill="#00bf71"
         transform="rotate(124.15572)"
         height="0.82269013"
         width="1.4397063"
         y="-588.05109"
         x="324.01105" />
      <rect
         style="fill:#b3b3b3;stroke-width:0.264583;opacity:0.19354839"
         id="rect230"
         fill="#00bf71"
         transform="rotate(124.15572)"
         height="0.82269013"
         width="1.4397063"
         y="-593.45471"
         x="322.08466" />
      <rect
         style="fill:#b3b3b3;stroke-width:0.264582;opacity:0.19354839"
         id="rect232"
         fill="#00bf71"
         transform="rotate(124.15568)"
         height="0.82268506"
         width="1.4396975"
         y="-602.93835"
         x="309.68524" />
      <g
         style="fill:#00aa44;opacity:0.06774194"
         id="g134"
         transform="matrix(0.71715743,0,0,0.64239895,552.84438,46.726172)">
        <rect
           style="fill:#00aa44"
           x="174.39183"
           y="351.87"
           width="12"
           height="7"
           fill="#3f3d56"
           id="rect4" />
        <rect
           style="fill:#00aa44"
           x="198.39183"
           y="351.87"
           width="12"
           height="7"
           fill="#3f3d56"
           id="rect6" />
        <rect
           style="fill:#00aa44"
           x="222.39183"
           y="351.87"
           width="12"
           height="7"
           fill="#3f3d56"
           id="rect8" />
        <rect
           style="fill:#00aa44"
           x="246.39183"
           y="351.87"
           width="12"
           height="7"
           fill="#3f3d56"
           id="rect10" />
        <rect
           style="fill:#00aa44"
           x="270.39182"
           y="351.87"
           width="12"
           height="7"
           fill="#3f3d56"
           id="rect12" />
        <rect
           style="fill:#00aa44"
           x="294.39182"
           y="351.87"
           width="12"
           height="7"
           fill="#3f3d56"
           id="rect14-4" />
        <rect
           style="fill:#00aa44"
           x="318.39182"
           y="351.87"
           width="12"
           height="7"
           fill="#3f3d56"
           id="rect16" />
        <rect
           style="fill:#00aa44"
           x="342.39182"
           y="351.87"
           width="12"
           height="7"
           fill="#3f3d56"
           id="rect18-0" />
        <rect
           style="fill:#00aa44"
           x="366.39182"
           y="351.87"
           width="12"
           height="7"
           fill="#3f3d56"
           id="rect20-7" />
        <rect
           style="fill:#00aa44"
           x="390.39182"
           y="351.87"
           width="12"
           height="7"
           fill="#3f3d56"
           id="rect22-2" />
        <rect
           style="fill:#00aa44"
           x="414.39182"
           y="351.87"
           width="12"
           height="7"
           fill="#3f3d56"
           id="rect24-9" />
        <path
           style="fill:#00aa44"
           d="m 453.89183,356.37 a 144,144 0 1 1 -288,0 z"
           fill="#3f3d56"
           id="path26" />
        <path
           style="fill:#00aa44"
           d="m 446.93181,357.28998 -91.6,-273.040004 a 143.90129,143.90129 0 0 1 182.32,90.720004 c 0.97,2.89 1.85,5.8 2.63,8.71 a 144.007,144.007 0 0 1 -93.35,173.61 z"
           fill="#3f3d56"
           id="path28" />
        <circle
           style="fill:#00aa44"
           cx="450.39182"
           cy="360.87"
           r="18"
           fill="#3f3d56"
           id="circle30-1" />
        <path
           style="fill:#00aa44"
           d="m 267.39228,393.87012 a 5,5 0 1 0 0,10 h 86 a 5,5 0 0 0 0,-10 z"
           fill="#6c63ff"
           id="path32" />
        <polygon
           style="fill:#00aa44"
           points="540.906,503.361 607,649.023 589.094,649.685 524.584,510.95 "
           fill="#3f3d56"
           id="polygon34"
           transform="translate(-177.60817,-32.153204)" />
        <polygon
           style="fill:#00aa44"
           points="434.094,503.361 368,649.023 385.906,649.685 450.416,510.95 "
           fill="#3f3d56"
           id="polygon36"
           transform="translate(-177.60817,-32.153204)" />
        <rect
           style="fill:#00aa44"
           x="236.39183"
           y="536.87"
           width="148"
           height="10"
           fill="#3f3d56"
           id="rect38" />
        <path
           style="fill:#00aa44"
           d="m 358.9929,79.152396 a 4.5007,4.5007 0 0 0 -4.30273,5.814 l 3.79394,12.43408 a 4.50055,4.50055 0 0 0 8.60938,-2.62646 l -3.79395,-12.43408 a 4.50982,4.50982 0 0 0 -4.30664,-3.18754 z"
           fill="#6c63ff"
           id="path40-8" />
        <path
           style="fill:#00aa44"
           d="m 159.89179,358.87012 a 4.5,4.5 0 0 0 0,9 h 13 a 4.5,4.5 0 0 0 0,-9 z"
           fill="#6c63ff"
           id="path42-9" />
        <path
           style="fill:#00aa44"
           d="m 267.39183,325.87 h -54 c -0.34,0 -0.67,0.01 -1,0.04 a 13.99661,13.99661 0 0 0 -0.03,27.92 c 0.34,0.03 0.68005,0.04 1.03,0.04 h 54 a 14,14 0 0 0 0,-28 z"
           fill="#ff6584"
           id="path44-1" />
        <path
           style="fill:#00aa44"
           d="m 207.95183,352.76 c 9.2,-1.18 16.44,-12.79 16.44,-26.89 h -2 c 0,13.79 -7.18,25 -16,25 v 1.12 z"
           opacity="0.2"
           id="path46-4" />
        <path
           style="fill:#00aa44"
           d="m 227.39183,352.87 v -2 c 8.82227,0 16,-11.21485 16,-25 h 2 c 0,14.88769 -8.07471,27 -18,27 z"
           opacity="0.2"
           id="path48-2" />
        <path
           style="fill:#00aa44"
           d="m 248.39183,352.87 v -2 c 8.82227,0 16,-11.21485 16,-25 h 2 c 0,14.88769 -8.07471,27 -18,27 z"
           opacity="0.2"
           id="path50-7" />
        <path
           style="fill:#00aa44"
           d="m 365.39183,325.87 h -54 c -0.34,0 -0.67,0.01 -1,0.04 a 13.99661,13.99661 0 0 0 -0.03,27.92 c 0.34,0.03 0.68005,0.04 1.03,0.04 h 54 a 14,14 0 0 0 0,-28 z"
           fill="#ff6584"
           id="path52-5" />
        <path
           style="fill:#00aa44"
           d="m 305.95183,352.76 c 9.2,-1.18 16.44,-12.79 16.44,-26.89 h -2 c 0,13.79 -7.18,25 -16,25 v 1.12 z"
           opacity="0.2"
           id="path54-3" />
        <path
           style="fill:#00aa44"
           d="m 325.39183,352.87 v -2 c 8.82227,0 16,-11.21485 16,-25 h 2 c 0,14.88769 -8.07471,27 -18,27 z"
           opacity="0.2"
           id="path56-1" />
        <path
           style="fill:#00aa44"
           d="m 346.39183,352.87 v -2 c 8.82227,0 16,-11.21485 16,-25 h 2 c 0,14.88769 -8.07471,27 -18,27 z"
           opacity="0.2"
           id="path58-8" />
        <path
           style="fill:#00aa44"
           d="m 263.4399,191.42657 c -7.077,-3.82334 -15.82641,0.34644 -19.353,7.11409 -4.28963,8.23192 -0.73409,18.12835 4.268,25.1644 5.19791,7.31144 12.25263,13.34642 15.72243,21.79562 a 36.43191,36.43191 0 0 1 -14.21277,44.86694 c -3.25472,2.05887 -0.24771,7.25317 3.02831,5.18082 a 42.42529,42.42529 0 0 0 19.32529,-43.22121 42.36477,42.36477 0 0 0 -4.1285,-12.36258 59.44346,59.44346 0 0 0 -7.80773,-11.03471 c -5.20539,-6.16053 -11.75815,-12.952 -12.08477,-21.5232 a 13.54853,13.54853 0 0 1 0.23088,-3.31974 11.67479,11.67479 0 0 1 0.69252,-2.22669 10.8575,10.8575 0 0 1 3.15191,-3.93277 9.59093,9.59093 0 0 1 4.29118,-1.94291 6.43462,6.43462 0 0 1 3.84791,0.62276 c 3.39749,1.83548 6.4304,-3.34286 3.02832,-5.18082 z"
           fill="#e6e6e6"
           id="path60-6" />
        <path
           style="fill:#00aa44"
           d="m 353.72326,227.72046 a 17.5003,17.5003 0 0 0 -17.50772,4.06905 10.63255,10.63255 0 0 0 -2.84391,9.28411 c 0.57185,3.6359 2.86753,6.86525 5.358,9.46773 4.873,5.09218 11.6933,8.3847 15.779,14.23089 a 17.86,17.86 0 0 1 3.30052,8.46847 15.99686,15.99686 0 0 1 -1.46365,8.004 c -3.04832,6.19587 -9.09925,10.41 -15.48091,13.12287 -1.49143,0.634 -1.8202,2.83267 -1.07626,4.10457 a 3.08,3.08 0 0 0 4.10457,1.07625 c 11.74358,-4.9923 22.60925,-16.17434 19.37011,-29.91222 -1.7039,-7.22662 -6.92621,-12.32685 -12.55006,-16.76066 a 70.32947,70.32947 0 0 1 -7.89223,-6.73514 c -1.94459,-2.0655 -3.96487,-4.8856 -3.60774,-7.68474 a 4.25054,4.25054 0 0 1 1.34779,-2.52835 11.62973,11.62973 0 0 1 2.97239,-1.97531 11.18009,11.18009 0 0 1 8.59507,-0.44589 3.02825,3.02825 0 0 0 3.69036,-2.09532 3.06156,3.06156 0 0 0 -2.09532,-3.69035 z"
           fill="#e6e6e6"
           id="path62-2" />
        <path
           style="fill:#00aa44"
           d="m 308.04706,142.3711 a 10.29274,10.29274 0 0 0 -6.39527,-2.46261 11.29509,11.29509 0 0 0 -6.22808,2.01372 21.44061,21.44061 0 0 0 -8.25243,12.36426 c -3.0319,11.61339 0.923,24.13072 6.41771,34.35865 2.77781,5.17065 6.01321,10.07843 8.80958,15.23858 a 67.63223,67.63223 0 0 1 6.16166,15.63565 75.5888,75.5888 0 0 1 0.74288,34.12784 c -2.40134,11.23137 -7.45245,22.35237 -16.0457,30.10148 a 3.000003,3.000003 0 0 0 4.24264,4.24265 c 7.6272,-6.878 12.72772,-16.31261 15.807,-26.01423 a 79.76277,79.76277 0 0 0 2.91291,-33.89479 77.69687,77.69687 0 0 0 -3.84638,-16.62225 91.76252,91.76252 0 0 0 -7.63184,-15.579 c -5.63947,-9.53486 -11.64265,-19.17852 -12.459,-30.53163 -0.40145,-5.58291 0.29709,-11.40246 3.75063,-15.89209 -0.189,0.24568 0.15158,-0.17871 0.15305,-0.18048 q 0.31392,-0.3761 0.65141,-0.73207 a 13.26571,13.26571 0 0 1 1.37838,-1.28344 c -0.10415,0.0825 -0.36973,0.25988 0.11372,-0.0753 0.24044,-0.16669 0.48568,-0.3265 0.73794,-0.47478 0.20515,-0.12059 0.416,-0.22754 0.62595,-0.33892 q 0.187,-0.0955 0.37926,-0.17984 -0.43782,0.18873 0.0493,0.004 c 0.23479,-0.0736 1.397,-0.32467 0.752,-0.24318 a 6.0339,6.0339 0 0 1 0.648,-0.0421 c 0.0918,-0.002 0.901,0.0398 0.50572,-0.003 -0.46225,-0.0506 0.36557,0.0822 0.3715,0.0836 a 5.93621,5.93621 0 0 1 0.76163,0.24127 c -0.62412,-0.24948 1.02371,0.67711 0.64331,0.38141 a 3.09924,3.09924 0 0 0 4.24264,0 c 1.03514,-1.03514 1.28652,-3.24259 0,-4.24264 z"
           fill="#e6e6e6"
           id="path64-4" />
      </g>
    </g>
  </g>
</svg>
