<svg width="23" height="93" viewBox="0 0 23 93" fill="none" xmlns="http://www.w3.org/2000/svg">
<path d="M0.980835 28.6671V1.34745C0.980835 0.795162 1.42855 0.347446 1.98083 0.347446H3.48083C4.03312 0.347446 4.48083 0.795162 4.48083 1.34745V23.5227C4.48083 24.075 4.92855 24.5227 5.48083 24.5227H6.48083C7.03312 24.5227 7.48083 24.075 7.48083 23.5227V1.34745C7.48083 0.795162 7.92855 0.347446 8.48083 0.347446H9.48083C10.0331 0.347446 10.4808 0.795162 10.4808 1.34745V23.5227C10.4808 24.075 10.9286 24.5227 11.4808 24.5227H13C13.5523 24.5227 14 24.075 14 23.5227V1.34744C14 0.795159 14.4477 0.347443 15 0.347443L15.9808 0.347445C16.5331 0.347446 16.9808 0.795161 16.9808 1.34745V23.5227C16.9808 24.075 17.4286 24.5227 17.9808 24.5227H18.9808C19.5331 24.5227 19.9808 24.075 19.9808 23.5227V1.34745C19.9808 0.795162 20.4286 0.347446 20.9808 0.347446H21.9808C22.5331 0.347446 22.9808 0.789731 22.9808 1.34202V28.6671C22.9808 34.8993 18.9665 36.3832 16.1619 36.3662C15.5416 36.3624 14.9808 36.8322 14.9808 37.4525V92C14.9808 92.5523 14.5331 93 13.9808 93H10.4808C9.92855 93 9.48083 92.5685 9.48083 92.0162V37.2533C9.48083 36.701 9.02901 36.2701 8.47847 36.2262C2.54359 35.753 1.2971 31.0701 0.980835 28.6671Z" fill="#1B9607"/>
</svg>
